<?xml version="1.0" encoding="iso-8859-1"?>
<!-- Generator: Adobe Illustrator 19.0.0, SVG Export Plug-In . SVG Version: 6.00 Build 0)  -->
<svg version="1.1" id="Layer_1" xmlns="http://www.w3.org/2000/svg" xmlns:xlink="http://www.w3.org/1999/xlink" x="0px" y="0px"
	 viewBox="0 0 511.999 511.999" style="enable-background:new 0 0 511.999 511.999;" xml:space="preserve">
<g>
	<g>
		<g>
			<path d="M313.088,169.595c-3.438-2.765-8.465-2.218-11.23,1.219l-19.817,24.644l-19.818-24.644
				c-1.516-1.885-3.805-2.982-6.225-2.982c-2.42,0-4.708,1.097-6.225,2.982l-19.818,24.644l-19.817-24.644
				c-2.765-3.437-7.791-3.983-11.23-1.219c-3.438,2.765-3.983,7.792-1.219,11.23l26.041,32.383c1.517,1.885,3.805,2.982,6.225,2.982
				s4.708-1.097,6.225-2.982l19.818-24.644l19.818,24.644c1.517,1.885,3.805,2.982,6.225,2.982c2.42,0,4.708-1.097,6.225-2.982
				l26.041-32.383C317.071,177.387,316.526,172.359,313.088,169.595z"/>
			<path d="M407.972,151.974C407.972,68.175,339.797,0,255.999,0S104.027,68.175,104.027,151.974
				c0,64.767,31.855,100.484,57.45,129.181c12.37,13.87,22.626,25.369,26.724,37.166c-12.85,2.376-22.615,13.658-22.615,27.184
				v61.087c0,14.279,10.88,26.065,24.784,27.503c2.76,23.244,17.617,42.817,38.09,52.239c1.006,14.32,12.97,25.665,27.541,25.665
				c14.571,0,26.534-11.345,27.541-25.665c20.472-9.423,35.33-28.995,38.09-52.239c13.906-1.439,24.785-13.225,24.785-27.503
				v-61.087c0-13.526-9.765-24.807-22.612-27.184c4.097-11.796,14.353-23.297,26.723-37.167
				C376.12,252.456,407.972,216.74,407.972,151.974z M255.999,496.026c-3.632,0-6.88-1.674-9.017-4.289
				c2.951,0.404,5.957,0.63,9.017,0.63c3.06,0,6.066-0.227,9.017-0.63C262.879,494.353,259.631,496.026,255.999,496.026z
				 M255.999,476.394c-24.927,0-45.656-18.287-49.494-42.15h98.986C301.655,458.106,280.927,476.394,255.999,476.394z
				 M330.441,406.592c0,6.439-5.239,11.678-11.677,11.678H193.237c-6.44,0-11.678-5.239-11.678-11.678v-3.72h148.882V406.592z
				 M330.441,386.898H181.558v-21.699h148.882V386.898z M330.441,345.505v3.719H181.558v-3.719c0-6.439,5.239-11.678,11.678-11.678
				h125.527C325.202,333.827,330.441,339.066,330.441,345.505z M307.296,317.853h-15.095c1.995-33.549,12.801-49.844,24.199-67.026
				c11.714-17.659,23.827-35.919,23.827-71.475c0-4.411-3.575-7.987-7.987-7.987s-7.987,3.576-7.987,7.987
				c0,30.741-9.808,45.525-21.165,62.645c-11.635,17.539-24.731,37.303-26.876,75.857h-40.424
				c-2.146-38.553-15.243-58.317-26.876-75.857c-11.357-17.12-21.165-31.904-21.165-62.645c0-4.411-3.575-7.987-7.987-7.987
				s-7.987,3.576-7.987,7.987c0,35.558,12.113,53.817,23.827,71.475c11.398,17.182,22.204,33.476,24.199,67.026h-15.09
				c-4.111-16.834-16.844-31.114-31.309-47.331c-23.79-26.674-53.398-59.87-53.398-118.548c-0.001-74.991,61.008-136,135.998-136
				c74.99,0,135.999,61.009,135.999,136c0,58.678-29.607,91.874-53.396,118.548C324.139,286.739,311.406,301.019,307.296,317.853z"
				/>
		</g>
	</g>
</g>
<g>
</g>
<g>
</g>
<g>
</g>
<g>
</g>
<g>
</g>
<g>
</g>
<g>
</g>
<g>
</g>
<g>
</g>
<g>
</g>
<g>
</g>
<g>
</g>
<g>
</g>
<g>
</g>
<g>
</g>
</svg>
